<svg width="19" height="20" viewBox="0 0 19 20" fill="none" xmlns="http://www.w3.org/2000/svg">
<path d="M18.334 6V18.993C18.3349 19.1243 18.31 19.2545 18.2605 19.3762C18.2111 19.4979 18.1383 19.6087 18.046 19.7022C17.9538 19.7957 17.8441 19.8701 17.7231 19.9212C17.6022 19.9723 17.4723 19.9991 17.341 20H1.32698C1.0638 20 0.811376 19.8955 0.625181 19.7095C0.438986 19.5235 0.334249 19.2712 0.333984 19.008V0.992C0.333984 0.455 0.782984 0 1.33598 0H12.331L18.334 6ZM16.334 7H11.334V2H2.33398V18H16.334V7Z" fill="#8F8F99"/>
</svg>
