<svg width="20" height="20" viewBox="0 0 20 20" fill="none" xmlns="http://www.w3.org/2000/svg">
<g clip-path="url(#clip0_2361_26436)">
<path d="M11.6666 11.2501V6.66675C11.6666 5.78269 11.3154 4.93485 10.6903 4.30973C10.0652 3.6846 9.21731 3.33341 8.33325 3.33341C7.4492 3.33341 6.60135 3.6846 5.97623 4.30973C5.35111 4.93485 4.99992 5.78269 4.99992 6.66675V11.2501C4.99992 12.6867 5.5706 14.0644 6.58642 15.0802C7.60225 16.0961 8.98 16.6667 10.4166 16.6667C11.8532 16.6667 13.2309 16.0961 14.2467 15.0802C15.2626 14.0644 15.8333 12.6867 15.8333 11.2501V3.33341H17.4999V11.2501C17.4999 13.1287 16.7536 14.9304 15.4253 16.2588C14.0969 17.5871 12.2952 18.3334 10.4166 18.3334C8.53797 18.3334 6.7363 17.5871 5.40791 16.2588C4.07953 14.9304 3.33325 13.1287 3.33325 11.2501V6.66675C3.33325 5.34067 3.86004 4.0689 4.79772 3.13121C5.7354 2.19353 7.00717 1.66675 8.33325 1.66675C9.65933 1.66675 10.9311 2.19353 11.8688 3.13121C12.8065 4.0689 13.3333 5.34067 13.3333 6.66675V11.2501C13.3333 12.0236 13.026 12.7655 12.479 13.3125C11.932 13.8595 11.1901 14.1667 10.4166 14.1667C9.64304 14.1667 8.90117 13.8595 8.35419 13.3125C7.80721 12.7655 7.49992 12.0236 7.49992 11.2501V6.66675H9.16659V11.2501C9.16659 11.5816 9.29828 11.8995 9.5327 12.134C9.76712 12.3684 10.0851 12.5001 10.4166 12.5001C10.7481 12.5001 11.066 12.3684 11.3005 12.134C11.5349 11.8995 11.6666 11.5816 11.6666 11.2501Z" fill="#585C5F"/>
</g>
<defs>
<clipPath id="clip0_2361_26436">
<rect width="20" height="20" fill="white"/>
</clipPath>
</defs>
</svg>
