<svg width="222" height="48" viewBox="0 0 222 48" fill="none" xmlns="http://www.w3.org/2000/svg">
<g clip-path="url(#clip0_2511_17253)">
<path d="M4.75824 41.7814V5.77209C4.75824 5.77209 5.23662 3.81506 6.93893 4.49225L38.2887 22.8448C38.2887 22.8448 39.3821 24.0936 38.2887 25.2057L6.90786 43.6018C6.90786 43.6018 4.75824 44.1174 4.75824 41.7814Z" stroke="#359FD8" stroke-width="8.6979" stroke-miterlimit="10"/>
<path d="M0.409546 15.7058L9.10745 24.0185L9.11366 36.9473L16.9666 32.6605L22.3904 39.5629L8.58557 47.6768C8.58557 47.6768 1.59619 49.8761 0.409546 42.837V15.7058Z" fill="#359FD8"/>
</g>
<path d="M68.0428 36.1802C66.1754 36.1802 64.4595 35.8774 62.8612 35.2717C61.2966 34.6661 59.9171 33.8081 58.7563 32.7145C57.6123 31.621 56.7207 30.3256 56.0646 28.8451C55.4253 27.3647 55.1224 25.7496 55.1224 24C55.1224 22.2504 55.4421 20.6353 56.0646 19.1548C56.7207 17.6744 57.6291 16.379 58.7899 15.2855C59.9508 14.1919 61.3303 13.3339 62.8949 12.7283C64.4594 12.1226 66.1754 11.8198 68.0092 11.8198C69.8766 11.8198 71.5758 12.1226 73.1235 12.7283C74.6881 13.3339 76.0508 14.1919 77.1948 15.2855C78.3556 16.379 79.2641 17.6744 79.9202 19.1548C80.5763 20.6185 80.896 22.2335 80.896 24C80.896 25.7496 80.5763 27.3815 79.9202 28.8788C79.2641 30.3593 78.3556 31.6547 77.1948 32.7482C76.0508 33.8249 74.6881 34.6661 73.1235 35.2717C71.5758 35.8774 69.8766 36.1802 68.0428 36.1802ZM68.0092 31.5369C69.0691 31.5369 70.028 31.3518 70.9028 30.9986C71.7945 30.6453 72.5852 30.1237 73.2581 29.4508C73.931 28.7779 74.4526 27.9872 74.8059 27.0619C75.1928 26.1366 75.3779 25.1272 75.3779 24C75.3779 22.8728 75.1928 21.8634 74.8059 20.9381C74.4526 20.0128 73.931 19.2221 73.2581 18.5492C72.602 17.8763 71.8281 17.3547 70.9365 17.0014C70.0448 16.6482 69.0691 16.4631 68.0092 16.4631C66.9493 16.4631 65.9736 16.6482 65.0819 17.0014C64.2071 17.3547 63.4332 17.8763 62.7603 18.5492C62.0873 19.2221 61.5658 20.0128 61.1789 20.9381C60.8256 21.8634 60.6405 22.8728 60.6405 24C60.6405 25.0935 60.8256 26.1198 61.1789 27.0619C61.5658 27.9872 62.0705 28.7779 62.7266 29.4508C63.3996 30.1237 64.1903 30.6453 65.0819 30.9986C65.9736 31.3518 66.9493 31.5369 68.0092 31.5369ZM84.6476 35.7764V12.2236H94.8426C96.9455 12.2236 98.7625 12.5769 100.293 13.2666C101.824 13.9396 103.002 14.9153 103.826 16.1939C104.651 17.4725 105.071 19.0034 105.071 20.7699C105.071 22.5195 104.651 24.0336 103.826 25.3122C103.002 26.5908 101.824 27.5834 100.293 28.2732C98.7625 28.9461 96.9455 29.2826 94.8426 29.2826H87.6758L90.0984 26.8263V35.7764H84.6476ZM90.0984 27.432L87.6758 24.8412H94.5398C96.2221 24.8412 97.4839 24.4879 98.3082 23.7645C99.1326 23.0411 99.5532 22.0485 99.5532 20.7699C99.5532 19.4745 99.1326 18.4651 98.3082 17.7417C97.4839 17.0183 96.2221 16.665 94.5398 16.665H87.6758L90.0984 14.0742V27.432ZM108.621 35.7764V12.2236H114.072V35.7764H108.621ZM119.338 35.7764V12.2236H123.846L137.742 29.1816H135.555V12.2236H140.939V35.7764H136.464L122.534 18.8184H124.721V35.7764H119.338ZM143.075 35.7764L153.573 12.2236H158.957L169.488 35.7764H163.768L155.155 14.9826H157.308L148.661 35.7764H143.075ZM171.591 35.7764V12.2236H181.786C183.889 12.2236 185.706 12.5769 187.237 13.2666C188.768 13.9396 189.946 14.9153 190.77 16.1939C191.594 17.4725 192.015 19.0034 192.015 20.7699C192.015 22.5195 191.594 24.0336 190.77 25.3122C189.946 26.574 188.768 27.5329 187.237 28.2059C185.706 28.8788 183.889 29.2153 181.786 29.2153H174.619L177.042 26.8263V35.7764H171.591ZM186.564 35.7764L180.676 27.2301H186.497L192.452 35.7764H186.564ZM177.042 27.432L174.619 24.8748H181.483C183.166 24.8748 184.427 24.5215 185.252 23.7981C186.076 23.0579 186.497 22.0485 186.497 20.7699C186.497 19.4745 186.076 18.4651 185.252 17.7417C184.427 17.0183 183.166 16.665 181.483 16.665H174.619L177.042 14.0742V27.432ZM200.544 35.7764V16.665H193.007V12.2236H213.532V16.665H205.995V35.7764H200.544ZM216.14 35.7764V12.2236H221.59V35.7764H216.14Z" fill="#09242E"/>
<defs>
<clipPath id="clip0_2511_17253">
<rect width="42.7129" height="48" fill="white" transform="translate(0.409546)"/>
</clipPath>
</defs>
</svg>
