<svg width="147" height="32" viewBox="0 0 147 32" fill="none" xmlns="http://www.w3.org/2000/svg">
<g clip-path="url(#clip0_1667_11517)">
<path d="M2.89974 27.8542V3.84798C2.89974 3.84798 3.21866 2.54329 4.35353 2.99475L25.2533 15.2298C25.2533 15.2298 25.9823 16.0623 25.2533 16.8037L4.33282 29.0678C4.33282 29.0678 2.89974 29.4115 2.89974 27.8542Z" stroke="#70D0FF" stroke-width="5.7986" stroke-miterlimit="10"/>
<path d="M0.000434875 10.4707L5.79904 16.0125L5.80318 24.6317L11.0385 21.7738L14.6543 26.3754L5.45112 31.7847C5.45112 31.7847 0.79153 33.2509 0.000434875 28.5582V10.4707Z" fill="#70D0FF"/>
</g>
<path d="M43.9461 24.1199C42.7011 24.1199 41.5571 23.918 40.4917 23.5142C39.4486 23.1105 38.5289 22.5385 37.755 21.8095C36.9924 21.0804 36.398 20.2168 35.9605 19.2299C35.5343 18.2429 35.3325 17.1662 35.3325 15.9998C35.3325 14.8333 35.5456 13.7566 35.9605 12.7697C36.398 11.7827 37.0036 10.9191 37.7775 10.1901C38.5514 9.46104 39.471 8.88904 40.5141 8.48528C41.5571 8.08152 42.7011 7.87964 43.9236 7.87964C45.1686 7.87964 46.3014 8.08152 47.3332 8.48528C48.3762 8.88904 49.2847 9.46104 50.0474 10.1901C50.8213 10.9191 51.4269 11.7827 51.8643 12.7697C52.3017 13.7454 52.5148 14.8221 52.5148 15.9998C52.5148 17.1662 52.3017 18.2541 51.8643 19.2523C51.4269 20.2393 50.8213 21.1029 50.0474 21.8319C49.2847 22.5497 48.3762 23.1105 47.3332 23.5142C46.3014 23.918 45.1686 24.1199 43.9461 24.1199ZM43.9236 21.0244C44.6302 21.0244 45.2695 20.901 45.8527 20.6655C46.4472 20.4299 46.9743 20.0822 47.4229 19.6336C47.8715 19.185 48.2192 18.6579 48.4548 18.041C48.7127 17.4241 48.8361 16.7512 48.8361 15.9998C48.8361 15.2483 48.7127 14.5754 48.4548 13.9585C48.2192 13.3417 47.8715 12.8145 47.4229 12.3659C46.9855 11.9173 46.4696 11.5696 45.8752 11.3341C45.2807 11.0985 44.6302 10.9752 43.9236 10.9752C43.2171 10.9752 42.5666 11.0985 41.9721 11.3341C41.3889 11.5696 40.873 11.9173 40.4244 12.3659C39.9757 12.8145 39.6281 13.3417 39.3701 13.9585C39.1346 14.5754 39.0112 15.2483 39.0112 15.9998C39.0112 16.7288 39.1346 17.4129 39.3701 18.041C39.6281 18.6579 39.9645 19.185 40.4019 19.6336C40.8506 20.0822 41.3777 20.4299 41.9721 20.6655C42.5666 20.901 43.2171 21.0244 43.9236 21.0244ZM55.0159 23.8507V8.14881H61.8126C63.2145 8.14881 64.4258 8.38434 65.4464 8.84418C66.4671 9.29281 67.2522 9.94332 67.8017 10.7957C68.3513 11.6481 68.6317 12.6687 68.6317 13.8464C68.6317 15.0128 68.3513 16.0222 67.8017 16.8746C67.2522 17.727 66.4671 18.3887 65.4464 18.8485C64.4258 19.2972 63.2145 19.5215 61.8126 19.5215H57.0347L58.6498 17.884V23.8507H55.0159ZM58.6498 18.2877L57.0347 16.5605H61.6107C62.7323 16.5605 63.5734 16.325 64.123 15.8427C64.6726 15.3605 64.953 14.6987 64.953 13.8464C64.953 12.9828 64.6726 12.3098 64.123 11.8275C63.5734 11.3453 62.7323 11.1097 61.6107 11.1097H57.0347L58.6498 9.38253V18.2877ZM70.9982 23.8507V8.14881H74.632V23.8507H70.9982ZM78.1425 23.8507V8.14881H81.1483L90.4124 19.4542H88.9544V8.14881H92.5434V23.8507H89.5601L80.2735 12.5453H81.7315V23.8507H78.1425ZM93.9678 23.8507L100.966 8.14881H104.555L111.576 23.8507H107.763L102.021 9.98818H103.456L97.6914 23.8507H93.9678ZM112.978 23.8507V8.14881H119.775C121.177 8.14881 122.388 8.38434 123.409 8.84418C124.429 9.29281 125.215 9.94332 125.764 10.7957C126.314 11.6481 126.594 12.6687 126.594 13.8464C126.594 15.0128 126.314 16.0222 125.764 16.8746C125.215 17.7157 124.429 18.355 123.409 18.8037C122.388 19.2523 121.177 19.4766 119.775 19.4766H114.997L116.612 17.884V23.8507H112.978ZM122.96 23.8507L119.035 18.1532H122.915L126.886 23.8507H122.96ZM116.612 18.2877L114.997 16.583H119.573C120.695 16.583 121.536 16.3474 122.085 15.8652C122.635 15.3717 122.915 14.6987 122.915 13.8464C122.915 12.9828 122.635 12.3098 122.085 11.8275C121.536 11.3453 120.695 11.1097 119.573 11.1097H114.997L116.612 9.38253V18.2877ZM132.28 23.8507V11.1097H127.256V8.14881H140.939V11.1097H135.914V23.8507H132.28ZM142.677 23.8507V8.14881H146.311V23.8507H142.677Z" fill="#1A3E75"/>
<defs>
<clipPath id="clip0_1667_11517">
<rect width="28.4753" height="32" fill="white"/>
</clipPath>
</defs>
</svg>
