<svg width="48" height="48" viewBox="0 0 48 48" fill="none" xmlns="http://www.w3.org/2000/svg">
<g clip-path="url(#clip0_2566_22841)">
<path d="M24 15C22.9 15 22 15.9 22 17C22 18.1 22.9 19 24 19C25.1 19 26 18.1 26 17C26 15.9 25.1 15 24 15ZM24 29C22.9 29 22 29.9 22 31C22 32.1 22.9 33 24 33C25.1 33 26 32.1 26 31C26 29.9 25.1 29 24 29ZM24 22C22.9 22 22 22.9 22 24C22 25.1 22.9 26 24 26C25.1 26 26 25.1 26 24C26 22.9 25.1 22 24 22Z" fill="#09242E"/>
</g>
<defs>
<clipPath id="clip0_2566_22841">
<rect width="24" height="24" fill="white" transform="translate(12 12)"/>
</clipPath>
</defs>
</svg>
