<svg width="20" height="20" viewBox="0 0 20 20" fill="none" xmlns="http://www.w3.org/2000/svg">
<g clip-path="url(#clip0_2361_26440)">
<path d="M8.33342 2.5H11.6667C13.4349 2.5 15.1306 3.20238 16.3808 4.45262C17.631 5.70286 18.3334 7.39856 18.3334 9.16667C18.3334 10.9348 17.631 12.6305 16.3808 13.8807C15.1306 15.131 13.4349 15.8333 11.6667 15.8333V18.75C7.50008 17.0833 1.66675 14.5833 1.66675 9.16667C1.66675 7.39856 2.36913 5.70286 3.61937 4.45262C4.86961 3.20238 6.5653 2.5 8.33342 2.5ZM10.0001 14.1667H11.6667C12.3234 14.1667 12.9735 14.0373 13.5802 13.7861C14.1868 13.5348 14.738 13.1665 15.2023 12.7022C15.6666 12.2379 16.0349 11.6867 16.2861 11.0801C16.5374 10.4735 16.6667 9.82328 16.6667 9.16667C16.6667 8.51006 16.5374 7.85988 16.2861 7.25325C16.0349 6.64662 15.6666 6.09543 15.2023 5.63113C14.738 5.16684 14.1868 4.79854 13.5802 4.54727C12.9735 4.296 12.3234 4.16667 11.6667 4.16667H8.33342C7.00733 4.16667 5.73556 4.69345 4.79788 5.63113C3.8602 6.56881 3.33341 7.84058 3.33341 9.16667C3.33341 12.175 5.38508 14.1383 10.0001 16.2333V14.1667Z" fill="#585C5F"/>
</g>
<defs>
<clipPath id="clip0_2361_26440">
<rect width="20" height="20" fill="white"/>
</clipPath>
</defs>
</svg>
