<svg width="48" height="48" viewBox="0 0 48 48" fill="none" xmlns="http://www.w3.org/2000/svg">
<g clip-path="url(#clip0_2566_22835)">
<path d="M26 34.5L23.2 31H18C17.7348 31 17.4804 30.8946 17.2929 30.7071C17.1054 30.5196 17 30.2652 17 30V19.103C17 18.8378 17.1054 18.5834 17.2929 18.3959C17.4804 18.2084 17.7348 18.103 18 18.103H34C34.2652 18.103 34.5196 18.2084 34.7071 18.3959C34.8946 18.5834 35 18.8378 35 19.103V30C35 30.2652 34.8946 30.5196 34.7071 30.7071C34.5196 30.8946 34.2652 31 34 31H28.8L26 34.5ZM27.839 29H33V20.103H19V29H24.161L26 31.298L27.839 29ZM14 14H31V16H15V27H13V15C13 14.7348 13.1054 14.4804 13.2929 14.2929C13.4804 14.1054 13.7348 14 14 14Z" fill="#359FD8"/>
</g>
<defs>
<clipPath id="clip0_2566_22835">
<rect width="24" height="24" fill="white" transform="translate(12 12)"/>
</clipPath>
</defs>
</svg>
