<svg width="20" height="20" viewBox="0 0 20 20" fill="none" xmlns="http://www.w3.org/2000/svg">
<g clip-path="url(#clip0_2361_26456)">
<path d="M14.1667 5.00008H18.3334V6.66675H16.6667V17.5001C16.6667 17.7211 16.579 17.9331 16.4227 18.0893C16.2664 18.2456 16.0544 18.3334 15.8334 18.3334H4.16675C3.94573 18.3334 3.73377 18.2456 3.57749 18.0893C3.42121 17.9331 3.33341 17.7211 3.33341 17.5001V6.66675H1.66675V5.00008H5.83341V2.50008C5.83341 2.27907 5.92121 2.06711 6.07749 1.91083C6.23377 1.75455 6.44573 1.66675 6.66675 1.66675H13.3334C13.5544 1.66675 13.7664 1.75455 13.9227 1.91083C14.079 2.06711 14.1667 2.27907 14.1667 2.50008V5.00008ZM15.0001 6.66675H5.00008V16.6667H15.0001V6.66675ZM7.50008 9.16675H9.16675V14.1667H7.50008V9.16675ZM10.8334 9.16675H12.5001V14.1667H10.8334V9.16675ZM7.50008 3.33341V5.00008H12.5001V3.33341H7.50008Z" fill="#585C5F"/>
</g>
<defs>
<clipPath id="clip0_2361_26456">
<rect width="20" height="20" fill="white"/>
</clipPath>
</defs>
</svg>
