<svg width="48" height="48" viewBox="0 0 48 48" fill="none" xmlns="http://www.w3.org/2000/svg">
<g clip-path="url(#clip0_2566_22833)">
<path d="M33 18.757L31 20.757V16H22V21H17V32H31V29.243L33 27.243V33.008C32.9998 33.2712 32.895 33.5235 32.7088 33.7095C32.5226 33.8955 32.2702 34 32.007 34H15.993C15.8617 33.9991 15.7318 33.9723 15.6109 33.9212C15.4899 33.8701 15.3802 33.7957 15.288 33.7022C15.1958 33.6087 15.1229 33.4979 15.0735 33.3762C15.0241 33.2545 14.9991 33.1243 15 32.993V20L21.003 14H31.998C32.55 14 33 14.455 33 14.992V18.757ZM33.778 20.807L35.192 22.222L27.414 30L25.998 29.998L26 28.586L33.778 20.808V20.807Z" fill="#359FD8"/>
</g>
<defs>
<clipPath id="clip0_2566_22833">
<rect width="24" height="24" fill="white" transform="translate(12 12)"/>
</clipPath>
</defs>
</svg>
