<svg width="223" height="265" viewBox="0 0 223 265" fill="none" xmlns="http://www.w3.org/2000/svg">
<path d="M152.117 57.7465L151.692 55.6363C151.001 52.2769 149.287 49.214 146.785 46.8683C144.426 45.587 142.252 43.9911 140.323 42.1244L139.996 41.7972C139.996 41.7972 136.823 42.0426 138.115 44.6763C138.408 45.4477 138.899 46.1278 139.54 46.6478C140.181 47.1678 140.948 47.5091 141.763 47.6371L143.399 51.9557L126.713 49.8618C126.713 49.8618 124.129 50.3199 125.748 52.1356C127.367 53.9514 136.692 55.5218 136.692 55.5218L124.423 55.1619C124.423 55.1619 122.787 56.2088 123.131 57.4848C123.474 58.7607 136.217 59.8076 136.217 59.8076L125.126 60.4783C124.63 60.7119 124.226 61.1039 123.977 61.5926C123.728 62.0813 123.649 62.6388 123.752 63.1774C123.949 64.2244 126.321 64.3062 127.351 64.1262C128.382 63.9463 135.53 64.2407 135.53 64.2407L127.008 66.8417C126.985 67.3033 127.073 67.7635 127.263 68.1845C127.454 68.6055 127.742 68.9751 128.104 69.2627C129.162 69.811 130.35 70.0599 131.539 69.9825L142.303 68.0358C142.303 68.0358 142.564 69.4754 150.383 68.8211L152.117 57.7465Z" fill="white" stroke="#35383B" stroke-width="1.63582" stroke-linecap="round" stroke-linejoin="round"/>
<path d="M143.365 51.9559C143.365 51.9559 140.961 58.81 144.298 60.9039L143.365 51.9559Z" fill="white"/>
<path d="M143.365 51.9559C143.365 51.9559 140.961 58.81 144.298 60.9039" stroke="#35383B" stroke-width="1.63582" stroke-linecap="round" stroke-linejoin="round"/>
<path d="M154.882 125.437H61.967V1H127.22L154.882 26.3389V125.437Z" fill="white" stroke="#1A3E75" stroke-width="1.63582" stroke-linecap="round" stroke-linejoin="round"/>
<path d="M127.22 1.49084V26.8297H154.882L127.22 1.49084Z" fill="#1A3E75" stroke="#35383B" stroke-width="1.63582" stroke-linecap="round" stroke-linejoin="round"/>
<path d="M164.437 126.613C173.962 116.534 173.512 100.642 163.433 91.1168C153.353 81.592 137.461 82.0414 127.936 92.1208C118.411 102.2 118.861 118.092 128.94 127.617C139.02 137.142 154.912 136.693 164.437 126.613Z" fill="#1A3E75"/>
<path d="M159.708 106.461H149.075V95.845H143.284V106.461H132.667V112.269H143.284V122.885H149.075V112.269H159.708V106.461Z" fill="white"/>
<path d="M200.391 263.681H21.6114L1 125.895H200.391V263.681Z" fill="#1A3E75" stroke="#35383B" stroke-width="1.63582" stroke-linecap="round" stroke-linejoin="round"/>
<path d="M107.231 125.895L104.548 118.174C103.828 116.106 102.482 114.312 100.697 113.043C98.9118 111.774 96.776 111.092 94.5856 111.091H22.2495V263.681H201.045L221.64 125.895H107.231Z" fill="#CBE5F6" stroke="#35383B" stroke-width="1.63582" stroke-linecap="round" stroke-linejoin="round"/>
</svg>
