<svg width="20" height="20" viewBox="0 0 20 20" fill="none" xmlns="http://www.w3.org/2000/svg">
<g clip-path="url(#clip0_2564_20165)">
<path d="M15.3033 14.47L10 19.7734L4.69667 14.47C3.64779 13.4211 2.93349 12.0847 2.64411 10.6299C2.35473 9.17504 2.50326 7.66704 3.07092 6.2966C3.63858 4.92616 4.59987 3.75483 5.83324 2.93072C7.0666 2.10661 8.51665 1.66675 10 1.66675C11.4834 1.66675 12.9334 2.10661 14.1668 2.93072C15.4001 3.75483 16.3614 4.92616 16.9291 6.2966C17.4968 7.66704 17.6453 9.17504 17.3559 10.6299C17.0665 12.0847 16.3522 13.4211 15.3033 14.47V14.47ZM10 10.8334C10.442 10.8334 10.866 10.6578 11.1785 10.3452C11.4911 10.0326 11.6667 9.60871 11.6667 9.16668C11.6667 8.72466 11.4911 8.30073 11.1785 7.98817C10.866 7.67561 10.442 7.50002 10 7.50002C9.55798 7.50002 9.13405 7.67561 8.82149 7.98817C8.50893 8.30073 8.33334 8.72466 8.33334 9.16668C8.33334 9.60871 8.50893 10.0326 8.82149 10.3452C9.13405 10.6578 9.55798 10.8334 10 10.8334Z" fill="#09242E"/>
</g>
<defs>
<clipPath id="clip0_2564_20165">
<rect width="20" height="20" fill="white"/>
</clipPath>
</defs>
</svg>
