<svg width="148" height="48" viewBox="0 0 148 48" fill="none" xmlns="http://www.w3.org/2000/svg">
<g clip-path="url(#clip0_2576_19658)">
<path d="M15.7874 33.6314V14.1263C15.7874 14.1263 16.0465 13.0662 16.9686 13.4331L33.9497 23.374C33.9497 23.374 34.5419 24.0505 33.9497 24.6528L16.9517 34.6174C16.9517 34.6174 15.7874 34.8967 15.7874 33.6314Z" stroke="#359FD8" stroke-width="4.71136" stroke-miterlimit="10"/>
<path d="M13.4319 19.5077L18.1433 24.0104L18.1466 31.0135L22.4003 28.6915L25.3382 32.4303L17.8606 36.8253C17.8606 36.8253 14.0747 38.0166 13.4319 34.2037V19.5077Z" fill="#359FD8"/>
</g>
<path d="M57.5369 31.1051C56.4476 31.1051 55.4466 30.9285 54.5143 30.5752C53.6016 30.2219 52.7969 29.7214 52.1198 29.0835C51.4524 28.4456 50.9323 27.6899 50.5496 26.8263C50.1766 25.9627 50 25.0206 50 24C50 22.9794 50.1865 22.0373 50.5496 21.1737C50.9323 20.3101 51.4622 19.5544 52.1394 18.9165C52.8165 18.2786 53.6212 17.7781 54.5339 17.4248C55.4466 17.0715 56.4476 16.8949 57.5173 16.8949C58.6066 16.8949 59.5978 17.0715 60.5006 17.4248C61.4133 17.7781 62.2082 18.2786 62.8755 18.9165C63.5527 19.5544 64.0826 20.3101 64.4654 21.1737C64.8481 22.0275 65.0346 22.9696 65.0346 24C65.0346 25.0206 64.8481 25.9725 64.4654 26.846C64.0826 27.7096 63.5527 28.4652 62.8755 29.1031C62.2082 29.7312 61.4133 30.2219 60.5006 30.5752C59.5978 30.9285 58.6066 31.1051 57.5369 31.1051ZM57.5173 28.3965C58.1355 28.3965 58.6949 28.2886 59.2052 28.0825C59.7254 27.8764 60.1866 27.5722 60.5791 27.1796C60.9717 26.7871 61.2759 26.3258 61.482 25.7861C61.7077 25.2463 61.8157 24.6575 61.8157 24C61.8157 23.3425 61.7077 22.7537 61.482 22.2139C61.2759 21.6742 60.9717 21.2129 60.5791 20.8204C60.1964 20.4278 59.745 20.1236 59.2249 19.9175C58.7047 19.7114 58.1355 19.6035 57.5173 19.6035C56.899 19.6035 56.3298 19.7114 55.8097 19.9175C55.2994 20.1236 54.848 20.4278 54.4554 20.8204C54.0629 21.2129 53.7586 21.6742 53.5329 22.2139C53.3268 22.7537 53.2189 23.3425 53.2189 24C53.2189 24.6379 53.3268 25.2365 53.5329 25.7861C53.7586 26.3258 54.053 26.7871 54.4358 27.1796C54.8283 27.5722 55.2896 27.8764 55.8097 28.0825C56.3298 28.2886 56.899 28.3965 57.5173 28.3965ZM67.223 30.8696V17.1304H73.1701C74.3968 17.1304 75.4567 17.3365 76.3497 17.7389C77.2428 18.1314 77.9297 18.7006 78.4106 19.4465C78.8915 20.1923 79.1368 21.0853 79.1368 22.1158C79.1368 23.1364 78.8915 24.0196 78.4106 24.7655C77.9297 25.5113 77.2428 26.0903 76.3497 26.4927C75.4567 26.8852 74.3968 27.0815 73.1701 27.0815H68.9895L70.4026 25.6487V30.8696H67.223ZM70.4026 26.002L68.9895 24.4907H72.9934C73.9748 24.4907 74.7108 24.2846 75.1917 23.8626C75.6726 23.4406 75.9179 22.8616 75.9179 22.1158C75.9179 21.3601 75.6726 20.7713 75.1917 20.3493C74.7108 19.9273 73.9748 19.7212 72.9934 19.7212H68.9895L70.4026 18.2099V26.002ZM81.2075 30.8696V17.1304H84.3871V30.8696H81.2075ZM87.4588 30.8696V17.1304H90.0889L98.195 27.0226H96.9192V17.1304H100.06V30.8696H97.4491L89.3234 20.9774H90.5992V30.8696H87.4588ZM101.306 30.8696L107.43 17.1304H110.57L116.713 30.8696H113.377L108.352 18.7399H109.608L104.564 30.8696H101.306ZM117.94 30.8696V17.1304H123.887C125.114 17.1304 126.174 17.3365 127.067 17.7389C127.96 18.1314 128.647 18.7006 129.128 19.4465C129.609 20.1923 129.854 21.0853 129.854 22.1158C129.854 23.1364 129.609 24.0196 129.128 24.7655C128.647 25.5015 127.96 26.0609 127.067 26.4534C126.174 26.846 125.114 27.0422 123.887 27.0422H119.707L121.12 25.6487V30.8696H117.94ZM126.674 30.8696L123.239 25.8842H126.635L130.109 30.8696H126.674ZM121.12 26.002L119.707 24.5103H123.711C124.692 24.5103 125.428 24.3042 125.909 23.8822C126.39 23.4504 126.635 22.8616 126.635 22.1158C126.635 21.3601 126.39 20.7713 125.909 20.3493C125.428 19.9273 124.692 19.7212 123.711 19.7212H119.707L121.12 18.2099V26.002ZM134.829 30.8696V19.7212H130.433V17.1304H142.406V19.7212H138.009V30.8696H134.829ZM143.927 30.8696V17.1304H147.106V30.8696H143.927Z" fill="#09242E"/>
<defs>
<clipPath id="clip0_2576_19658">
<rect width="23.1362" height="26" fill="white" transform="translate(13.4319 11)"/>
</clipPath>
</defs>
</svg>
