<svg width="184" height="40" viewBox="0 0 184 40" fill="none" xmlns="http://www.w3.org/2000/svg">
<g clip-path="url(#clip0_1149_7215)">
<path d="M4.18024 34.8177V4.80994C4.18024 4.80994 4.57889 3.17908 5.99748 3.74341L32.1223 19.0372C32.1223 19.0372 33.0335 20.0779 32.1223 21.0046L5.97159 36.3347C5.97159 36.3347 4.18024 36.7644 4.18024 34.8177Z" stroke="#F56200" stroke-width="7.24825" stroke-miterlimit="10"/>
<path d="M0.556091 13.0884L7.80434 20.0156L7.80952 30.7896L14.3537 27.2173L18.8735 32.9693L7.36945 39.7309C7.36945 39.7309 1.54496 41.5637 0.556091 35.6978V13.0884Z" fill="#F56200"/>
</g>
<path d="M55.4881 30.15C53.932 30.15 52.502 29.8977 51.1701 29.393C49.8663 28.8883 48.7167 28.1733 47.7494 27.262C46.796 26.3507 46.053 25.2712 45.5062 24.0375C44.9735 22.8038 44.7211 21.4579 44.7211 19.9999C44.7211 18.5418 44.9875 17.196 45.5062 15.9623C46.053 14.7285 46.81 13.649 47.7774 12.7378C48.7447 11.8265 49.8943 11.1115 51.1982 10.6068C52.502 10.1021 53.932 9.84973 55.4601 9.84973C57.0163 9.84973 58.4322 10.1021 59.722 10.6068C61.0259 11.1115 62.1614 11.8265 63.1148 12.7378C64.0821 13.649 64.8392 14.7285 65.3859 15.9623C65.9327 17.182 66.1991 18.5278 66.1991 19.9999C66.1991 21.4579 65.9327 22.8178 65.3859 24.0655C64.8392 25.2993 64.0821 26.3788 63.1148 27.29C62.1614 28.1873 61.0259 28.8883 59.722 29.393C58.4322 29.8977 57.0163 30.15 55.4881 30.15ZM55.4601 26.2806C56.3433 26.2806 57.1424 26.1264 57.8715 25.832C58.6145 25.5376 59.2734 25.103 59.8342 24.5422C60.395 23.9814 60.8296 23.3225 61.124 22.5514C61.4464 21.7804 61.6007 20.9392 61.6007 19.9999C61.6007 19.0606 61.4464 18.2194 61.124 17.4483C60.8296 16.6772 60.395 16.0183 59.8342 15.4575C59.2874 14.8968 58.6425 14.4622 57.8995 14.1677C57.1565 13.8733 56.3433 13.7191 55.4601 13.7191C54.5769 13.7191 53.7637 13.8733 53.0207 14.1677C52.2917 14.4622 51.6468 14.8968 51.086 15.4575C50.5252 16.0183 50.0906 16.6772 49.7682 17.4483C49.4738 18.2194 49.3195 19.0606 49.3195 19.9999C49.3195 20.9111 49.4738 21.7663 49.7682 22.5514C50.0906 23.3225 50.5112 23.9814 51.058 24.5422C51.6187 25.103 52.2777 25.5376 53.0207 25.832C53.7637 26.1264 54.5769 26.2806 55.4601 26.2806ZM69.3254 29.8136V10.1862H77.8213C79.5737 10.1862 81.0878 10.4806 82.3636 11.0554C83.6394 11.6162 84.6207 12.4293 85.3077 13.4948C85.9947 14.5603 86.3451 15.8361 86.3451 17.3081C86.3451 18.7662 85.9947 20.0279 85.3077 21.0934C84.6207 22.1589 83.6394 22.986 82.3636 23.5608C81.0878 24.1216 79.5737 24.402 77.8213 24.402H71.8489L73.8678 22.3552V29.8136H69.3254ZM73.8678 22.8599L71.8489 20.7009H77.5689C78.9709 20.7009 80.0223 20.4064 80.7093 19.8036C81.3962 19.2008 81.7467 18.3736 81.7467 17.3081C81.7467 16.2286 81.3962 15.3875 80.7093 14.7846C80.0223 14.1818 78.9709 13.8874 77.5689 13.8874H71.8489L73.8678 11.7284V22.8599ZM89.3033 29.8136V10.1862H93.8456V29.8136H89.3033ZM98.2337 29.8136V10.1862H101.991L113.571 24.3179H111.749V10.1862H116.235V29.8136H112.506L100.897 15.6819H102.72V29.8136H98.2337ZM118.015 29.8136L126.763 10.1862H131.25L140.026 29.8136H135.259L128.081 12.4854H129.876L122.67 29.8136H118.015ZM141.778 29.8136V10.1862H150.274C152.027 10.1862 153.541 10.4806 154.817 11.0554C156.092 11.6162 157.074 12.4293 157.761 13.4948C158.448 14.5603 158.798 15.8361 158.798 17.3081C158.798 18.7662 158.448 20.0279 157.761 21.0934C157.074 22.1449 156.092 22.944 154.817 23.5048C153.541 24.0655 152.027 24.3459 150.274 24.3459H144.302L146.321 22.3552V29.8136H141.778ZM154.256 29.8136L149.349 22.6916H154.2L159.163 29.8136H154.256ZM146.321 22.8599L144.302 20.7289H150.022C151.424 20.7289 152.475 20.4345 153.162 19.8316C153.849 19.2148 154.2 18.3736 154.2 17.3081C154.2 16.2286 153.849 15.3875 153.162 14.7846C152.475 14.1818 151.424 13.8874 150.022 13.8874H144.302L146.321 11.7284V22.8599ZM165.906 29.8136V13.8874H159.625V10.1862H176.729V13.8874H170.448V29.8136H165.906ZM178.902 29.8136V10.1862H183.444V29.8136H178.902Z" fill="#1D1F66"/>
<defs>
<clipPath id="clip0_1149_7215">
<rect width="35.5941" height="40" fill="white" transform="translate(0.555542)"/>
</clipPath>
</defs>
</svg>
