<svg width="150" height="32" viewBox="0 0 150 32" fill="none" xmlns="http://www.w3.org/2000/svg">
<g clip-path="url(#clip0_175_2908)">
<path d="M2.89941 27.8541V3.84785C2.89941 3.84785 3.21834 2.54317 4.35321 2.99463L25.253 15.2297C25.253 15.2297 25.982 16.0622 25.253 16.8036L4.3325 29.0676C4.3325 29.0676 2.89941 29.4114 2.89941 27.8541Z" stroke="#EE632F" stroke-width="5.7986" stroke-miterlimit="10"/>
<path d="M0 10.4707L5.7986 16.0125L5.80274 24.6317L11.0381 21.7738L14.6539 26.3754L5.45069 31.7847C5.45069 31.7847 0.791095 33.2509 0 28.5582V10.4707Z" fill="#EE632F"/>
</g>
<path d="M47.0892 24.1201C45.8443 24.1201 44.7003 23.9182 43.6348 23.5145C42.5917 23.1107 41.672 22.5387 40.8982 21.8097C40.1355 21.0807 39.5411 20.2171 39.1037 19.2301C38.6775 18.2431 38.4756 17.1664 38.4756 16C38.4756 14.8336 38.6887 13.7569 39.1037 12.7699C39.5411 11.7829 40.1467 10.9193 40.9206 10.1903C41.6945 9.46129 42.6142 8.88929 43.6572 8.48553C44.7003 8.08176 45.8443 7.87988 47.0668 7.87988C48.3117 7.87988 49.4445 8.08176 50.4763 8.48553C51.5194 8.88929 52.4278 9.46129 53.1905 10.1903C53.9644 10.9193 54.57 11.7829 55.0074 12.7699C55.4448 13.7457 55.6579 14.8224 55.6579 16C55.6579 17.1664 55.4448 18.2543 55.0074 19.2525C54.57 20.2395 53.9644 21.1031 53.1905 21.8321C52.4278 22.5499 51.5194 23.1107 50.4763 23.5145C49.4445 23.9182 48.3117 24.1201 47.0892 24.1201ZM47.0668 21.0246C47.7733 21.0246 48.4126 20.9012 48.9958 20.6657C49.5903 20.4302 50.1174 20.0825 50.566 19.6339C51.0147 19.1852 51.3623 18.6581 51.5979 18.0412C51.8558 17.4244 51.9792 16.7514 51.9792 16C51.9792 15.2486 51.8558 14.5756 51.5979 13.9588C51.3623 13.3419 51.0147 12.8148 50.566 12.3661C50.1286 11.9175 49.6127 11.5698 49.0183 11.3343C48.4239 11.0988 47.7733 10.9754 47.0668 10.9754C46.3602 10.9754 45.7097 11.0988 45.1152 11.3343C44.532 11.5698 44.0161 11.9175 43.5675 12.3661C43.1189 12.8148 42.7712 13.3419 42.5132 13.9588C42.2777 14.5756 42.1543 15.2486 42.1543 16C42.1543 16.729 42.2777 17.4132 42.5132 18.0412C42.7712 18.6581 43.1076 19.1852 43.5451 19.6339C43.9937 20.0825 44.5208 20.4302 45.1152 20.6657C45.7097 20.9012 46.3602 21.0246 47.0668 21.0246ZM58.159 23.8509V8.14906H64.9557C66.3576 8.14906 67.5689 8.38459 68.5896 8.84443C69.6102 9.29305 70.3953 9.94356 70.9448 10.7959C71.4944 11.6483 71.7748 12.669 71.7748 13.8466C71.7748 15.013 71.4944 16.0224 70.9448 16.8748C70.3953 17.7272 69.6102 18.3889 68.5896 18.8488C67.5689 19.2974 66.3576 19.5217 64.9557 19.5217H60.1778L61.7929 17.8842V23.8509H58.159ZM61.7929 18.288L60.1778 16.5608H64.7538C65.8754 16.5608 66.7165 16.3253 67.2661 15.843C67.8157 15.3607 68.0961 14.699 68.0961 13.8466C68.0961 12.983 67.8157 12.3101 67.2661 11.8278C66.7165 11.3455 65.8754 11.11 64.7538 11.11H60.1778L61.7929 9.38278V18.288ZM74.1413 23.8509V8.14906H77.7752V23.8509H74.1413ZM81.2856 23.8509V8.14906H84.2914L93.5555 19.4544H92.0975V8.14906H95.6865V23.8509H92.7032L83.4166 12.5456H84.8747V23.8509H81.2856ZM97.1109 23.8509L104.109 8.14906H107.698L114.719 23.8509H110.906L105.164 9.98842H106.599L100.834 23.8509H97.1109ZM116.121 23.8509V8.14906H122.918C124.32 8.14906 125.531 8.38459 126.552 8.84443C127.573 9.29305 128.358 9.94356 128.907 10.7959C129.457 11.6483 129.737 12.669 129.737 13.8466C129.737 15.013 129.457 16.0224 128.907 16.8748C128.358 17.716 127.573 18.3553 126.552 18.8039C125.531 19.2525 124.32 19.4768 122.918 19.4768H118.14L119.755 17.8842V23.8509H116.121ZM126.103 23.8509L122.178 18.1534H126.058L130.029 23.8509H126.103ZM119.755 18.288L118.14 16.5832H122.716C123.838 16.5832 124.679 16.3477 125.228 15.8654C125.778 15.3719 126.058 14.699 126.058 13.8466C126.058 12.983 125.778 12.3101 125.228 11.8278C124.679 11.3455 123.838 11.11 122.716 11.11H118.14L119.755 9.38278V18.288ZM135.424 23.8509V11.11H130.399V8.14906H144.082V11.11H139.057V23.8509H135.424ZM145.82 23.8509V8.14906H149.454V23.8509H145.82Z" fill="#17191D"/>
<defs>
<clipPath id="clip0_175_2908">
<rect width="28.4753" height="32" fill="white"/>
</clipPath>
</defs>
</svg>
