<svg width="49" height="48" viewBox="0 0 49 48" fill="none" xmlns="http://www.w3.org/2000/svg">
<g clip-path="url(#clip0_1672_10385)">
<path d="M44.5 40.014C44.4963 40.5392 44.2862 41.042 43.915 41.4136C43.5438 41.7852 43.0412 41.9958 42.516 42H6.484C5.95763 41.9995 5.45299 41.79 5.08098 41.4176C4.70896 41.0452 4.5 40.5404 4.5 40.014V38H40.5V14.6L24.5 29L4.5 11V8C4.5 7.46957 4.71071 6.96086 5.08579 6.58579C5.46086 6.21071 5.96957 6 6.5 6H42.5C43.0304 6 43.5391 6.21071 43.9142 6.58579C44.2893 6.96086 44.5 7.46957 44.5 8V40.014ZM9.368 10L24.5 23.62L39.632 10H9.368ZM0.5 30H16.5V34H0.5V30ZM0.5 20H10.5V24H0.5V20Z" fill="#70D0FF"/>
</g>
<defs>
<clipPath id="clip0_1672_10385">
<rect width="48" height="48" fill="white" transform="translate(0.5)"/>
</clipPath>
</defs>
</svg>
