<svg width="364" height="320" viewBox="0 0 364 320" fill="none" xmlns="http://www.w3.org/2000/svg">
<path d="M70.9827 270.804C132.3 303.065 231.725 303.065 293.056 270.804C354.386 238.542 354.379 186.235 293.056 153.973C231.732 121.711 132.313 121.711 70.9827 153.973C9.65222 186.235 9.66593 238.569 70.9827 270.804Z" fill="#EBEBEB"/>
<path d="M96.7398 248.257C109.217 248.257 119.333 243.437 119.333 237.491C119.333 231.546 109.217 226.726 96.7398 226.726C84.2622 226.726 74.1471 231.546 74.1471 237.491C74.1471 243.437 84.2622 248.257 96.7398 248.257Z" fill="#D1D1D1"/>
<path d="M276.351 218.605C293.004 218.605 306.504 212.17 306.504 204.232C306.504 196.293 293.004 189.858 276.351 189.858C259.698 189.858 246.198 196.293 246.198 204.232C246.198 212.17 259.698 218.605 276.351 218.605Z" fill="#D1D1D1"/>
<path d="M305.213 113.018C305.084 112.327 301.703 104.46 300.312 101.365L293.265 104.663L295.964 110.844L303.26 116.491C303.97 116.275 304.569 115.793 304.933 115.146C305.296 114.5 305.397 113.737 305.213 113.018Z" fill="#B55B52"/>
<path d="M291.173 195.419H285.738V203.342H291.173V195.419Z" fill="#B55B52"/>
<path d="M272.026 185.635L266.594 185.821L266.866 193.739L272.298 193.552L272.026 185.635Z" fill="#B55B52"/>
<path d="M273.385 81.9649C271.418 82.0106 269.495 82.5531 267.794 83.5421C266.093 84.531 264.67 85.9342 263.657 87.621C260.654 92.0888 255.366 99.7256 255.366 99.7256L265.269 102.867L273.385 81.9649Z" fill="#359FD8"/>
<path d="M290.812 118.149C290.812 123.345 291.485 156.941 291.485 156.941C291.614 158.433 293.014 161.188 292.71 166.927C292.295 174.729 291.623 196.405 291.623 196.405C291.623 196.405 289.071 198.938 285.469 196.405C285.469 196.405 280.541 166.973 279.574 159.244C278.717 152.501 277.28 134.187 277.28 134.187L272.241 155.753C272.241 155.753 273.162 160.819 273.319 164.393C273.475 167.968 272.397 188.639 272.397 188.639C271.516 189.19 270.505 189.501 269.466 189.542C268.427 189.582 267.396 189.35 266.474 188.87C266.474 188.87 262.108 158.673 261.546 155.439C260.984 152.206 265.378 118.149 265.378 118.149H290.812Z" fill="#2D5F7C"/>
<path d="M282.633 82.1305C287.506 83.3004 293.687 85.2718 295.861 89.7672C298.035 94.2627 301.388 101.549 301.388 101.549L293.318 106.321L290.813 102.01V118.149C286.999 122.295 273.697 124.229 265.369 118.149V91.582C265.369 87.3537 267.728 82.2595 274.222 81.8818L282.633 82.1305Z" fill="#359FD8"/>
<path d="M284.466 60.4455C284.904 60.3951 285.347 60.4453 285.762 60.5922C286.177 60.7391 286.553 60.9787 286.861 61.293C287.893 62.3431 287.681 64.2961 286.861 68.7731L283.674 69.1416L284.466 60.4455Z" fill="#09242E"/>
<path d="M265.941 59.1927C265.257 59.2012 264.579 59.0663 263.951 58.7966C262.975 58.2347 262.717 59.3401 263.251 60.3074C263.605 60.9973 264.129 61.5854 264.774 62.0159C265.419 62.4463 266.163 62.7049 266.936 62.767C266.936 62.6288 267.857 60.2797 267.857 60.2797L265.941 59.1927Z" fill="#09242E"/>
<path d="M282.974 69.1416C283.444 69.4272 284.116 68.5152 284.697 67.9072C284.926 67.6457 285.218 67.4467 285.545 67.3288C285.872 67.211 286.224 67.1781 286.567 67.2333C286.911 67.2886 287.235 67.4301 287.508 67.6446C287.782 67.8592 287.997 68.1397 288.133 68.46C289.1 70.4958 286.907 73.2133 285.618 74.1069C285.257 74.4183 284.808 74.6082 284.333 74.6496C283.858 74.6909 283.383 74.5816 282.974 74.3372L282.633 82.1305C282.064 83.3794 281.194 84.4675 280.1 85.2971C279.007 86.1268 277.725 86.672 276.369 86.8839C271.763 87.5011 272.73 83.7334 274.232 81.8818V79.0445C273.088 79.2923 271.913 79.3545 270.75 79.2288C270.151 79.0722 268.732 77.3864 267.811 75.4242C266.779 73.2594 265.047 69.418 266.595 62.9236C268.235 55.9501 275.724 55.7382 280.201 58.5479C284.678 61.3575 282.974 69.1416 282.974 69.1416Z" fill="#B55B52"/>
<path d="M282.974 69.9339C283.205 69.9339 284.117 68.4415 284.697 67.9072C285.517 67.161 284.467 60.4455 284.467 60.4455C284.467 60.4455 285.286 57.903 283.674 56.208C282.062 54.513 278.949 54.8078 276.664 54.7249C273.86 54.739 271.083 54.181 268.502 53.0851C265.26 51.6757 265.02 51.5099 264.615 52.9377C264.209 54.3656 264.062 57.6174 265.997 59.8007L267.609 60.3994C267.609 60.3994 268.475 61.164 271.496 61.5325C274.289 61.7447 277.096 61.6922 279.879 61.3759C280.754 61.2562 280.938 62.1037 281.408 64.4251C281.832 66.4701 282.173 69.9246 282.974 69.9339Z" fill="#09242E"/>
<path d="M284.456 60.9701L287.312 59.4317C287.221 59.2399 287.092 59.0686 286.933 58.9281C286.774 58.7877 286.588 58.6811 286.386 58.6147C286.185 58.5484 285.972 58.5237 285.76 58.5422C285.549 58.5607 285.343 58.622 285.156 58.7223C284.773 58.935 284.486 59.2873 284.356 59.7059C284.225 60.1245 284.261 60.5773 284.456 60.9701Z" fill="#09242E"/>
<path d="M274.233 79.0441C276.186 78.676 278.102 78.127 279.954 77.4044C280.826 76.9531 281.539 76.246 281.999 75.3778C281.776 76.2459 281.382 77.0605 280.838 77.7729C279.751 79.1547 274.233 80.1772 274.233 80.1772V79.0441Z" fill="#914942"/>
<path d="M275.263 68.0823C275.26 68.1959 275.279 68.309 275.32 68.4151C275.361 68.5211 275.423 68.6178 275.502 68.6995C275.581 68.7811 275.675 68.846 275.78 68.8903C275.885 68.9347 275.997 68.9575 276.111 68.9574C276.297 68.9722 276.484 68.9298 276.646 68.8358C276.808 68.7419 276.937 68.6009 277.017 68.4316C277.097 68.2623 277.123 68.0728 277.092 67.8882C277.062 67.7035 276.975 67.5326 276.845 67.3982C276.715 67.2638 276.547 67.1722 276.364 67.1356C276.18 67.0991 275.99 67.1193 275.818 67.1935C275.646 67.2678 275.501 67.3926 275.402 67.5514C275.303 67.7102 275.255 67.8953 275.263 68.0823Z" fill="#09242E"/>
<path d="M276.157 64.8765L277.999 65.8806C278.127 65.631 278.154 65.3421 278.075 65.0731C277.997 64.8041 277.818 64.5755 277.576 64.4343C277.455 64.3649 277.321 64.3212 277.182 64.306C277.043 64.2908 276.903 64.3043 276.77 64.3458C276.637 64.3873 276.513 64.4559 276.408 64.5472C276.303 64.6385 276.217 64.7506 276.157 64.8765Z" fill="#09242E"/>
<path d="M275.327 73.8396L273.383 74.5674C273.427 74.6966 273.496 74.8159 273.586 74.9185C273.676 75.021 273.785 75.1046 273.908 75.1646C274.03 75.2246 274.163 75.2597 274.299 75.2678C274.436 75.276 274.572 75.2571 274.701 75.2122C274.961 75.1071 275.171 74.9062 275.288 74.6508C275.404 74.3954 275.418 74.1051 275.327 73.8396Z" fill="white"/>
<path d="M267.692 65.5859L269.341 64.3054C269.263 64.1939 269.164 64.0993 269.048 64.0274C268.933 63.9554 268.804 63.9077 268.67 63.887C268.536 63.8663 268.398 63.8732 268.267 63.9071C268.135 63.941 268.012 64.0013 267.904 64.0843C267.682 64.2591 267.536 64.5128 267.497 64.7926C267.457 65.0723 267.527 65.3565 267.692 65.5859Z" fill="#09242E"/>
<path d="M268.198 67.8427C268.198 67.954 268.22 68.0642 268.262 68.167C268.305 68.2698 268.367 68.3633 268.446 68.442C268.525 68.5207 268.618 68.5831 268.721 68.6257C268.824 68.6683 268.934 68.6902 269.045 68.6902C269.157 68.6902 269.267 68.6683 269.37 68.6257C269.473 68.5831 269.566 68.5207 269.645 68.442C269.723 68.3633 269.786 68.2698 269.828 68.167C269.871 68.0642 269.893 67.954 269.893 67.8427C269.897 67.7291 269.877 67.6159 269.837 67.5099C269.796 67.4038 269.734 67.3071 269.655 67.2255C269.576 67.1438 269.481 67.0789 269.376 67.0346C269.272 66.9903 269.159 66.9675 269.045 66.9676C268.817 66.9724 268.6 67.067 268.442 67.2309C268.283 67.3948 268.195 67.6146 268.198 67.8427Z" fill="#09242E"/>
<path d="M272.518 67.0321L272.242 72.1448L269.58 71.2328L272.518 67.0321Z" fill="#A02724"/>
<path d="M250.336 97.8L272.058 103.521L278.469 130.484L257.816 124.487L250.336 97.8Z" fill="#1A3645"/>
<path d="M259.806 115.644C259.424 116.326 258.845 116.878 258.145 117.228C257.446 117.578 256.657 117.71 255.882 117.606L255.568 116.491L259.806 115.644Z" fill="#09242E"/>
<path d="M264.66 116.491C264.752 117.21 266.235 118.536 268.731 119.365C271.569 120.286 275.926 119.817 275.926 119.817L275.539 118.472L264.66 116.491Z" fill="#09242E"/>
<path opacity="0.43" d="M256.73 101.706L256.545 100.877C256.453 100.416 257.724 100.398 259.401 100.83L262.598 101.66C264.274 102.102 265.702 102.82 265.803 103.281L265.988 104.11L256.73 101.706Z" fill="#2D5F7C"/>
<path d="M255.18 98.5834C255.125 98.2979 255.641 98.2242 256.341 98.4176L257.649 98.8045C257.649 98.8045 257.271 96.9621 260.09 97.6346C260.842 97.7455 261.553 98.0489 262.153 98.5154C262.754 98.9818 263.224 99.5955 263.517 100.297L264.871 100.684C265.617 100.896 266.29 101.292 266.382 101.605L266.539 102.121L255.346 99.173L255.18 98.5834Z" fill="#2D5F7C"/>
<path d="M256.728 99.4769C257.75 99.7256 258.174 99.8638 258.331 100.564C258.487 101.264 258.58 101.964 258.58 101.964L263.526 103.272C263.526 103.272 263.287 102.25 263.213 101.854C263.139 101.457 263.305 101.218 264.134 101.421L264.199 101.107L256.433 99.1361L256.728 99.4769Z" fill="#2D5F7C"/>
<path d="M256.554 101.789L256.379 100.96C256.278 100.499 257.549 100.481 259.225 100.914L262.422 101.743C264.099 102.176 265.536 102.894 265.637 103.355L265.812 104.184L256.554 101.789Z" fill="#2D5F7C"/>
<path d="M303.259 116.491L295.963 110.844C295.963 110.844 280.671 113.718 278.948 113.857C277.226 113.995 275.862 112.291 275.208 110.596C274.554 108.901 273.228 109.113 273.228 109.113C273.228 109.113 273.734 111.268 273.9 111.95C274.066 112.631 270.077 113.193 267.783 112.42C265.49 111.646 262.164 112.77 264.218 115.902C266.273 119.034 270.289 119.384 273.071 119.393C274.235 119.382 275.398 119.302 276.553 119.154C277.474 119.043 278.396 118.951 279.252 118.886C284.945 118.481 300.67 117.302 303.259 116.491Z" fill="#B55B52"/>
<path d="M252.537 105.686L253.504 109.122C253.688 109.785 256.212 110.964 257.815 111.425C259.418 111.885 261.159 112.346 260.404 114.621C259.704 116.675 257.078 117.145 255.742 117.09C254.843 116.938 254.002 116.54 253.315 115.94C252.627 115.34 252.118 114.562 251.846 113.691C250.925 111.065 251.422 108.256 251.053 106.717C250.685 105.179 251.744 104.774 252.537 105.686Z" fill="#B55B52"/>
<path d="M285.737 200.661V199.878C285.221 200.108 284.005 204.724 281.849 206.686C280.136 208.252 277.796 210.067 277.243 211.808C276.691 213.549 280.504 214.627 282.107 214.341C283.95 214.009 287.202 212.701 288.012 211.485C288.823 210.269 289.201 208.473 289.855 207.579C290.509 206.686 292.029 205.737 292.388 204.668C292.495 203.705 292.388 202.73 292.075 201.813C291.826 200.845 291.55 199.795 291.227 199.878C291.227 199.998 291.227 200.477 291.227 200.477C290.437 201.089 289.463 201.413 288.464 201.398C287.662 201.426 285.728 201.269 285.737 200.661Z" fill="#09242E"/>
<path d="M266.861 192.048C266.576 192.048 266.345 192.454 265.728 193.126C264.796 194.068 263.712 194.846 262.522 195.429C260.486 196.452 256.535 198.018 254.738 198.828C253.614 199.335 253.67 200.671 254.83 201.454C255.991 202.237 258.782 202.78 262.135 202.025C263.978 201.62 266.345 199.934 267.847 200.017C269.348 200.1 272.167 200.09 273.282 199.326C274.397 198.561 273.945 196.921 273.632 195.512C273.319 194.103 272.803 191.634 272.296 191.735V192.223C271.642 193.209 268.307 193.614 266.87 192.887L266.861 192.048Z" fill="#09242E"/>
<g opacity="0.3">
<path d="M275.549 201.09L275.382 98.9604C275.347 98.3692 275.174 97.7944 274.877 97.2821C274.58 96.7698 274.167 96.3344 273.671 96.0109L153.177 26.7482C152.193 26.2075 151.476 26.6499 151.476 27.7313L151.672 129.821C151.705 130.413 151.876 130.989 152.174 131.501C152.471 132.014 152.885 132.449 153.383 132.771L273.887 202.083C274.802 202.623 275.549 202.181 275.549 201.09Z" fill="#F5F8FA"/>
</g>
<path d="M274.627 202.8C274.279 202.787 273.941 202.685 273.643 202.505L153.139 133.193C152.564 132.831 152.085 132.336 151.742 131.749C151.4 131.161 151.205 130.5 151.173 129.821L150.986 27.7313C150.945 27.4319 150.994 27.127 151.126 26.8554C151.259 26.5838 151.469 26.3578 151.73 26.206C151.992 26.0543 152.292 25.9837 152.594 26.0032C152.896 26.0227 153.185 26.1314 153.424 26.3155L273.929 95.5684C274.503 95.9317 274.981 96.4277 275.323 97.0146C275.665 97.6015 275.861 98.2621 275.895 98.9406L276.062 201.07C276.086 201.368 276.03 201.667 275.9 201.936C275.771 202.206 275.572 202.436 275.325 202.604C275.114 202.73 274.873 202.798 274.627 202.8ZM152.421 26.9644C152.357 26.9473 152.289 26.9473 152.225 26.9644C152.129 27.0471 152.055 27.1525 152.01 27.271C151.966 27.3895 151.952 27.5174 151.969 27.6428L152.136 129.772C152.164 130.289 152.315 130.791 152.577 131.238C152.839 131.684 153.203 132.061 153.64 132.338L274.145 201.65C274.44 201.817 274.695 201.866 274.853 201.768C275.01 201.67 275.108 201.434 275.108 201.09L274.941 98.9603C274.91 98.4569 274.762 97.9676 274.509 97.5309C274.257 97.0942 273.907 96.722 273.486 96.4434L152.933 27.1316C152.779 27.0333 152.603 26.9758 152.421 26.9644Z" fill="#1A3645"/>
<path d="M264.106 178.556C260.911 176.285 259.043 174.23 257.775 158.441L257.667 157.094C256.477 142.258 255.7 132.466 248.936 128.425C245.692 126.459 243.096 128.425 240.354 130.559C237.866 132.456 235.31 134.403 232.429 132.761C227.366 129.811 226.53 123.972 224.957 113.314C224.761 111.997 224.564 110.611 224.338 109.156C223.994 106.884 223.699 104.771 223.424 102.785C221.87 91.5965 220.927 84.8325 215.205 81.3816C214.641 80.9823 213.992 80.7201 213.309 80.616C212.627 80.5119 211.929 80.5687 211.272 80.7819C206.936 82.296 203.544 91.4687 199.956 101.192C199.681 101.91 199.415 102.667 199.13 103.424C196.525 110.591 193.575 118.722 189.495 120.226C188.918 120.437 188.301 120.515 187.69 120.454C187.079 120.392 186.489 120.193 185.966 119.872C181.905 117.571 181.178 111.279 180.48 105.184C179.782 99.0881 179.103 92.9631 175.269 90.6527C174.944 90.4425 174.572 90.3155 174.186 90.2829C173.801 90.2503 173.413 90.3132 173.057 90.4659C168.299 92.3142 164.081 106.393 164.042 106.531L163.058 106.255C163.235 105.656 167.453 91.5769 172.654 89.5417C173.151 89.336 173.689 89.2528 174.225 89.299C174.761 89.3452 175.277 89.5195 175.731 89.8072C179.969 92.3437 180.706 98.803 181.424 105.046C182.141 111.289 182.79 116.942 186.428 118.997C186.825 119.249 187.274 119.406 187.741 119.455C188.209 119.505 188.681 119.445 189.122 119.282C192.769 117.935 195.768 109.696 198.176 103.07C198.462 102.303 198.727 101.556 199.002 100.828C202.837 90.4561 206.15 81.4996 210.918 79.8283C211.708 79.572 212.547 79.5017 213.369 79.6228C214.191 79.7439 214.974 80.0531 215.657 80.5263C221.772 84.2229 222.745 91.1541 224.338 102.637C224.613 104.604 224.908 106.727 225.252 108.988C225.478 110.453 225.675 111.84 225.872 113.147C227.376 123.509 228.212 129.212 232.862 131.886C235.172 133.213 237.266 131.611 239.695 129.762C242.448 127.658 245.594 125.289 249.379 127.56C256.566 131.866 257.372 141.865 258.581 156.995L258.689 158.342C259.987 174.446 261.934 175.823 264.588 177.74L264.106 178.556Z" fill="#C0E0EF"/>
<path d="M247.48 124.08C248.211 124.559 248.821 125.202 249.259 125.959C249.698 126.715 249.954 127.563 250.007 128.435C250.007 130.038 248.876 130.687 247.49 129.89C246.756 129.415 246.144 128.772 245.705 128.016C245.266 127.259 245.012 126.409 244.963 125.535C244.963 123.972 246.055 123.323 247.48 124.08Z" fill="#2D5F7C"/>
<path d="M215.461 78.0583C216.193 78.5356 216.802 79.1786 217.239 79.9353C217.676 80.692 217.929 81.541 217.977 82.4136C217.977 84.0161 216.857 84.665 215.47 83.8687C214.735 83.3936 214.123 82.7513 213.684 81.9943C213.245 81.2374 212.991 80.3872 212.944 79.5133C212.944 77.8715 214.065 77.2619 215.461 78.0583Z" fill="#2D5F7C"/>
<path d="M175.535 87.3493C176.269 87.8222 176.881 88.4627 177.321 89.2181C177.76 89.9735 178.014 90.8223 178.061 91.6948C178.061 93.3072 176.94 93.9561 175.544 93.1597C174.813 92.6818 174.204 92.0386 173.767 91.2821C173.33 90.5255 173.076 89.6768 173.028 88.8044C173.018 87.2018 174.148 86.5431 175.535 87.3493Z" fill="#2D5F7C"/>
<path opacity="0.65" d="M211.516 196.587V94.4573C211.484 93.8669 211.313 93.2923 211.017 92.78C210.722 92.2677 210.31 91.832 209.816 91.5079L105.396 31.2213C104.412 30.6806 103.695 31.123 103.695 32.2045V134.334C103.727 134.924 103.897 135.499 104.193 136.012C104.488 136.524 104.9 136.96 105.396 137.283L209.816 197.57C210.759 198.12 211.516 197.678 211.516 196.587Z" fill="#F5F8FA"/>
<path d="M210.584 198.297C210.236 198.284 209.898 198.182 209.601 198.003L105.151 137.716C104.577 137.35 104.099 136.852 103.757 136.264C103.415 135.675 103.219 135.014 103.185 134.334V32.2046C103.146 31.906 103.196 31.6026 103.33 31.3326C103.463 31.0627 103.674 30.8384 103.935 30.688C104.196 30.5376 104.495 30.4678 104.796 30.4875C105.096 30.5072 105.384 30.6155 105.623 30.7987L210.043 91.0853C210.616 91.4492 211.094 91.9453 211.437 92.5321C211.779 93.1188 211.975 93.7791 212.009 94.4574V196.587C212.033 196.885 211.977 197.184 211.848 197.453C211.718 197.723 211.519 197.953 211.272 198.12C211.062 198.239 210.825 198.3 210.584 198.297ZM104.64 31.4869C104.575 31.4702 104.508 31.4702 104.443 31.4869C104.347 31.5695 104.274 31.675 104.229 31.7935C104.184 31.912 104.17 32.0398 104.188 32.1652V134.334C104.218 134.839 104.366 135.33 104.618 135.768C104.871 136.207 105.221 136.58 105.643 136.861L210.063 197.147C210.163 197.226 210.281 197.277 210.406 197.298C210.532 197.319 210.66 197.307 210.78 197.265C210.938 197.177 211.026 196.931 211.026 196.587V94.4574C210.996 93.9537 210.849 93.4638 210.596 93.0269C210.344 92.59 209.993 92.218 209.571 91.9406L105.151 31.6638C105 31.5582 104.823 31.4969 104.64 31.4869Z" fill="#1A3645"/>
<path d="M193.555 173.375V106.167C193.538 105.871 193.451 105.584 193.303 105.327C193.154 105.071 192.947 104.854 192.699 104.692L182.425 98.7932C181.953 98.518 181.57 98.7343 181.57 99.2848V166.453C181.584 166.75 181.67 167.038 181.819 167.295C181.967 167.551 182.175 167.768 182.425 167.928L192.699 173.827C193.171 174.142 193.555 173.916 193.555 173.375Z" fill="#359FD8"/>
<path d="M173.587 161.842V126.921C173.57 126.625 173.484 126.337 173.335 126.081C173.187 125.825 172.98 125.607 172.732 125.446L162.448 119.547C161.986 119.282 161.602 119.547 161.602 120.039V154.97C161.62 155.264 161.705 155.551 161.852 155.807C161.998 156.063 162.203 156.281 162.448 156.445L172.732 162.344C173.204 162.609 173.587 162.422 173.587 161.842Z" fill="#359FD8"/>
<path d="M153.641 150.32V96.9452C153.624 96.6495 153.537 96.3619 153.389 96.1058C153.24 95.8496 153.034 95.6319 152.785 95.4704L142.502 89.5716C142.039 89.2963 141.656 89.5126 141.656 90.0631V143.428C141.672 143.723 141.757 144.01 141.903 144.266C142.05 144.522 142.255 144.741 142.502 144.903L152.785 150.802C153.237 151.077 153.641 150.861 153.641 150.32Z" fill="#C0E0EF"/>
<path d="M133.642 138.827V62.3579C133.627 62.0629 133.543 61.7757 133.396 61.5194C133.249 61.2632 133.044 61.0452 132.797 60.8832L122.513 54.9843C122.051 54.709 121.667 54.9843 121.667 55.4759V131.906C121.685 132.2 121.77 132.487 121.917 132.743C122.063 132.998 122.267 133.217 122.513 133.38L132.797 139.279C133.269 139.555 133.642 139.329 133.642 138.827Z" fill="#359FD8"/>
<path d="M94.6282 231.015L98.256 236.059C96.6021 236.822 94.798 237.205 92.9765 237.179C89.7321 237.307 88.8375 236.196 88.7195 235.98C88.1689 234.81 89.0242 232.686 89.2602 230.858L94.6282 231.015Z" fill="#09242E"/>
<path d="M88.7195 225.941C88.7195 225.941 89.27 230.523 89.3094 231.506C89.3487 232.489 93.7827 232.813 94.6282 231.014L94.756 225.41L88.7195 225.941Z" fill="#F28F8F"/>
<path d="M88.718 135.679C85.6899 140.398 82.8192 144.528 82.1899 149.856C80.8922 161.054 85.1394 173.855 86.0537 182.133C84.3346 184.495 83.3404 187.307 83.1927 190.224C83.1927 193.646 88.718 225.942 88.718 225.942C88.718 225.942 92.7293 227.171 94.7546 225.411L98.5495 166L96.5832 158.764L88.718 135.679Z" fill="#2D5F7C"/>
<path d="M116.708 113.548L136.676 123.134L124.692 150.082L106.071 139.336L116.708 113.548Z" fill="#1A3645"/>
<path d="M134.327 123.626L123.984 146.592L109.65 138.334L117.78 115.731L134.327 123.626Z" fill="#F5F8FA"/>
<path d="M117.779 115.73L134.326 123.625L123.157 146.837L107.505 137.9L117.779 115.73Z" fill="#F5F8FA"/>
<path d="M121.379 119.054L121.762 118.228C121.978 117.776 123.345 117.963 124.82 118.661L127.641 119.998C129.116 120.686 130.129 121.63 129.922 122.082L129.529 122.908L121.379 119.054Z" fill="#D1D1D1"/>
<path d="M81.9436 123.233C80.4885 127.381 77.6079 133.969 78.532 135.296C79.4562 136.623 85.0012 136.338 88.0882 136.22C92.0208 136.072 95.2849 135.915 95.2849 135.915L94.6262 129.033H89.0419L91.4998 122.072L81.9436 123.233Z" fill="#F28F8F"/>
<path d="M87.5379 108.485C85.5027 111.828 81.3932 123.625 81.3932 123.625C82.535 124.92 84.0495 125.83 85.7289 126.231C87.1955 126.681 88.754 126.742 90.2513 126.408L94.7935 115.102L87.5379 108.485Z" fill="#359FD8"/>
<path d="M107.861 110.589C111.43 111.661 113.602 111.848 117.545 117.914C121.487 123.98 130.119 136.013 130.975 137.459C132.164 139.425 132.675 141.863 131.653 143.711C130.63 145.56 127.907 144.695 123.994 141.244C120.081 137.793 112.708 128.541 112.708 128.541C112.708 128.541 105.019 119.88 107.861 110.589Z" fill="#FFA8A7"/>
<path d="M105.009 102.724L104.045 111.248L95.6294 112.221L96.8485 100.905L105.009 102.724Z" fill="#FFA8A7"/>
<path d="M87.0071 90.2676C87.7051 82.4024 91.9228 79.1482 95.2754 78.3715C101.931 76.7984 107.869 79.217 110.563 83.8869C111.271 85.1159 112.461 89.717 110.091 92.4305C107.722 95.144 87.0071 90.2676 87.0071 90.2676Z" fill="#09242E"/>
<path d="M111.222 93.04C111.222 93.04 112.972 95.9894 112.706 96.3237C112.241 96.5939 111.732 96.7803 111.202 96.8742L111.222 93.04Z" fill="#F28F8F"/>
<path d="M105.913 83.5523C107.722 84.6239 110.828 86.5804 111.251 93.4624C111.693 100.531 110.347 102.704 109.285 103.569C108.606 104.159 105.126 103.962 103.386 103.323C101.252 102.517 96.5038 100.325 94.4589 96.5692C92.0993 92.1548 91.8929 86.4427 95.0193 84.388C96.6133 83.3318 98.4508 82.7006 100.357 82.5544C102.264 82.4081 104.176 82.7516 105.913 83.5523Z" fill="#FFA8A7"/>
<path d="M106.444 83.9064C106.444 83.9064 107.693 90.405 105.53 94.3376C105.53 94.3376 104.547 91.7716 102.345 92.3713C100.142 92.9711 100.172 95.8615 101.794 97.4345C102.205 97.8821 102.734 98.2045 103.32 98.3646C103.906 98.5246 104.526 98.5157 105.107 98.339C104.801 100.363 103.858 102.237 102.413 103.687C100.121 104.218 97.7245 104.089 95.5014 103.317C93.2784 102.545 91.3188 101.16 89.8488 99.3222C84.933 93.4823 86.2209 83.5918 94.0173 81.4682C101.814 79.3446 106.444 83.9064 106.444 83.9064Z" fill="#09242E"/>
<path d="M98.0486 233.64C98.0486 233.64 102.453 233.355 105.491 232.971C108.529 232.588 110.938 234.072 110.22 235.331C109.502 236.589 107.831 237.621 105.226 238.496C102.994 239.253 100.31 239.794 97.9896 240.463C95.6694 241.131 94.057 241.996 92.7101 241.534C91.2059 241.013 90.557 240.414 90.6848 239.312C91.0131 237.746 91.42 236.197 91.9039 234.672L98.0486 233.64Z" fill="#09242E"/>
<path d="M93.1807 228.763L91.5979 235.714C91.5979 235.714 91.4504 236.56 95.0684 237.101C98.6864 237.641 104.369 235.213 105.342 234.712C106.316 234.21 106.424 233.237 102.865 233.433C99.3058 233.63 98.0473 233.64 98.0473 233.64L99.2369 230.553L93.1807 228.763Z" fill="#FFA8A7"/>
<path d="M98.5507 165.999L96.5844 158.763C92.8196 157.772 89.1883 156.329 85.7698 154.467C85.7698 154.467 87.8147 158.193 93.635 160.228L96.6925 169.528L96.958 190.804L98.5507 165.999Z" fill="#09242E"/>
<path d="M88.7185 135.679C87.0963 138.324 83.2227 142.856 84.0387 147.202C85.0218 152.481 87.8828 156.178 96.5542 158.763L104.695 188.258C104.695 188.258 100.457 192.19 99.1595 195.995C97.8617 199.8 93.182 228.793 93.182 228.793C93.182 228.793 94.6272 231.152 99.1988 230.582C99.1988 230.582 115.136 194.206 116.266 191.836C117.615 189.451 118.091 186.67 117.613 183.971C117.112 180.147 111.714 138.393 111.714 138.393L88.7185 135.679Z" fill="#2D5F7C"/>
<path d="M87.2427 109.094C87.8719 107.423 89.8775 106.027 91.6865 106.519C97.3593 108.062 106.178 110.097 107.859 110.589C107.859 110.589 107.112 123.37 113.64 127.184C113.335 129.613 111.674 138.323 111.674 138.323C111.674 138.323 103.809 142.138 97.3593 140.29C90.9098 138.441 88.7174 135.708 88.7174 135.708L91.952 130.439C91.2638 128.718 88.5896 122.908 86.8691 117.5C86.2364 114.716 86.3655 111.812 87.2427 109.094Z" fill="#359FD8"/>
<path d="M92.7396 80.1214C92.7396 80.1214 90.0458 75.5301 83.4489 76.7197C76.852 77.9093 74.1778 84.9093 74.2761 89.3433C74.3745 93.7773 75.859 96.8742 71.8871 102.124C71.1042 103.16 70.5526 104.351 70.2694 105.618C69.9862 106.884 69.9781 108.197 70.2455 109.467C70.5129 110.737 71.0498 111.935 71.8197 112.98C72.5897 114.025 73.5748 114.893 74.7087 115.525C80.0079 118.474 81.2958 113.342 80.0669 108.957C78.6511 103.933 83.911 103.058 85.3169 99.2534C86.7228 95.4487 83.9601 87.4557 85.7298 84.7422C87.6961 81.7927 90.3506 82.2057 91.6287 83.2085L92.7396 80.1214Z" fill="#09242E"/>
<path d="M107.861 110.589C109.624 110.964 111.346 111.511 113.003 112.221C115.166 113.283 123.601 126.526 123.601 126.526C123.601 126.526 123.001 131.511 116.1 133.487L112.02 128.335C112.02 128.335 106.023 119.379 107.861 110.589Z" fill="#359FD8"/>
<path d="M113.217 129.888C111.405 127.778 110.037 125.324 109.196 122.672C109.196 122.672 109.196 128.394 112.962 131.353L113.217 129.888Z" fill="#2D5F7C"/>
<path d="M122.096 115.495C122.224 115.21 122.823 115.23 123.433 115.495L124.534 116.036C124.534 116.036 125.389 114.257 127.946 115.328C130.502 116.4 129.715 118.455 129.715 118.455L130.885 119.054C131.534 119.379 131.967 119.88 131.868 120.175L131.672 120.696L121.84 115.977L122.096 115.495Z" fill="#2D5F7C"/>
<path d="M123.1 116.616C124.025 117.029 124.379 117.225 124.084 117.933C123.789 118.641 123.366 119.32 123.366 119.32L127.711 121.404C127.711 121.404 128.174 120.421 128.37 119.988C128.567 119.556 128.921 119.388 129.609 119.723L129.904 119.428L123.022 116.232L123.1 116.616Z" fill="#2D5F7C"/>
<path d="M121.299 118.808L121.692 117.982C121.909 117.52 123.275 117.717 124.75 118.415L127.572 119.752C129.036 120.44 130.059 121.374 129.843 121.836L129.449 122.662L121.299 118.808Z" fill="#2D5F7C"/>
</svg>
