<svg width="20" height="20" viewBox="0 0 20 20" fill="none" xmlns="http://www.w3.org/2000/svg">
<path d="M10 20C4.477 20 0 15.523 0 10C0 4.477 4.477 0 10 0C15.523 0 20 4.477 20 10C20 15.523 15.523 20 10 20ZM10 18C12.1217 18 14.1566 17.1571 15.6569 15.6569C17.1571 14.1566 18 12.1217 18 10C18 7.87827 17.1571 5.84344 15.6569 4.34315C14.1566 2.84285 12.1217 2 10 2C7.87827 2 5.84344 2.84285 4.34315 4.34315C2.84285 5.84344 2 7.87827 2 10C2 12.1217 2.84285 14.1566 4.34315 15.6569C5.84344 17.1571 7.87827 18 10 18ZM5 11H7C7 11.7956 7.31607 12.5587 7.87868 13.1213C8.44129 13.6839 9.20435 14 10 14C10.7956 14 11.5587 13.6839 12.1213 13.1213C12.6839 12.5587 13 11.7956 13 11H15C15 12.3261 14.4732 13.5979 13.5355 14.5355C12.5979 15.4732 11.3261 16 10 16C8.67392 16 7.40215 15.4732 6.46447 14.5355C5.52678 13.5979 5 12.3261 5 11ZM6 9C5.60218 9 5.22064 8.84196 4.93934 8.56066C4.65804 8.27936 4.5 7.89782 4.5 7.5C4.5 7.10218 4.65804 6.72064 4.93934 6.43934C5.22064 6.15804 5.60218 6 6 6C6.39782 6 6.77936 6.15804 7.06066 6.43934C7.34196 6.72064 7.5 7.10218 7.5 7.5C7.5 7.89782 7.34196 8.27936 7.06066 8.56066C6.77936 8.84196 6.39782 9 6 9ZM14 9C13.6022 9 13.2206 8.84196 12.9393 8.56066C12.658 8.27936 12.5 7.89782 12.5 7.5C12.5 7.10218 12.658 6.72064 12.9393 6.43934C13.2206 6.15804 13.6022 6 14 6C14.3978 6 14.7794 6.15804 15.0607 6.43934C15.342 6.72064 15.5 7.10218 15.5 7.5C15.5 7.89782 15.342 8.27936 15.0607 8.56066C14.7794 8.84196 14.3978 9 14 9Z" fill="#74747E"/>
</svg>
