<svg width="23" height="16" viewBox="0 0 23 16" fill="none" xmlns="http://www.w3.org/2000/svg">
<path d="M11.2456 11H4.75361L2.75361 16H0.599609L6.99961 0H8.99961L15.3996 16H13.2456L11.2456 11ZM10.4456 9L7.99961 2.885L5.55361 9H10.4456ZM20.9996 8.535V8H22.9996V16H20.9996V15.465C20.3915 15.8157 19.7018 16.0002 18.9998 16C18.2978 15.9998 17.6083 15.8148 17.0004 15.4637C16.3925 15.1125 15.8878 14.6076 15.5368 13.9996C15.1859 13.3916 15.0012 12.702 15.0012 12C15.0012 11.298 15.1859 10.6084 15.5368 10.0004C15.8878 9.3924 16.3925 8.88748 17.0004 8.53635C17.6083 8.18521 18.2978 8.00024 18.9998 8C19.7018 7.99976 20.3915 8.18428 20.9996 8.535ZM18.9996 14C19.53 14 20.0387 13.7893 20.4138 13.4142C20.7889 13.0391 20.9996 12.5304 20.9996 12C20.9996 11.4696 20.7889 10.9609 20.4138 10.5858C20.0387 10.2107 19.53 10 18.9996 10C18.4692 10 17.9605 10.2107 17.5854 10.5858C17.2103 10.9609 16.9996 11.4696 16.9996 12C16.9996 12.5304 17.2103 13.0391 17.5854 13.4142C17.9605 13.7893 18.4692 14 18.9996 14Z" fill="#74747E"/>
</svg>
