<svg width="56" height="56" viewBox="0 0 56 56" fill="none" xmlns="http://www.w3.org/2000/svg">
<rect width="56" height="56" rx="28" fill="#FFF0E0"/>
<g clip-path="url(#clip0_429_1728)">
<path d="M21.3332 39.9746C19.512 39.8348 17.7815 39.1231 16.3888 37.9411C14.9961 36.7592 14.0125 35.1674 13.5784 33.3931C13.1443 31.6188 13.2819 29.7527 13.9715 28.0613C14.6612 26.3698 15.8676 24.9396 17.4186 23.9746C17.7486 21.4014 19.005 19.0366 20.9526 17.3228C22.9002 15.6091 25.4056 14.6637 27.9999 14.6637C30.5942 14.6637 33.0996 15.6091 35.0472 17.3228C36.9948 19.0366 38.2512 21.4014 38.5812 23.9746C40.1322 24.9396 41.3387 26.3698 42.0283 28.0613C42.718 29.7527 42.8555 31.6188 42.4214 33.3931C41.9873 35.1674 41.0037 36.7592 39.611 37.9411C38.2184 39.1231 36.4878 39.8348 34.6666 39.9746V40H21.3332V39.9746ZM29.3332 29.3333H33.3332L27.9999 22.6666L22.6666 29.3333H26.6666V34.6666H29.3332V29.3333Z" fill="#F56200"/>
</g>
<defs>
<clipPath id="clip0_429_1728">
<rect width="32" height="32" fill="white" transform="translate(12 12)"/>
</clipPath>
</defs>
</svg>
