<svg width="20" height="20" viewBox="0 0 20 20" fill="none" xmlns="http://www.w3.org/2000/svg">
<g clip-path="url(#clip0_2564_6478)">
<path d="M6.04414 15.4117L6.64747 15.7642C7.66492 16.3576 8.82213 16.6691 9.99997 16.6667C11.3185 16.6667 12.6074 16.2757 13.7038 15.5432C14.8001 14.8106 15.6546 13.7694 16.1592 12.5512C16.6638 11.3331 16.7958 9.99262 16.5385 8.69942C16.2813 7.40621 15.6464 6.21833 14.714 5.28598C13.7817 4.35363 12.5938 3.71869 11.3006 3.46145C10.0074 3.20422 8.66692 3.33624 7.44875 3.84082C6.23057 4.34541 5.18938 5.19989 4.45684 6.29622C3.7243 7.39255 3.3333 8.68148 3.3333 10C3.3333 11.1967 3.64747 12.3442 4.23664 13.3534L4.5883 13.9567L4.04414 15.9575L6.04414 15.4117ZM1.66997 18.3334L2.79664 14.1934C2.05425 12.9207 1.66422 11.4733 1.66664 10C1.66664 5.39752 5.39747 1.66669 9.99997 1.66669C14.6025 1.66669 18.3333 5.39752 18.3333 10C18.3333 14.6025 14.6025 18.3334 9.99997 18.3334C8.52729 18.3357 7.08052 17.946 5.8083 17.2042L1.66997 18.3334ZM6.99247 6.09002C7.10414 6.08169 7.21664 6.08169 7.3283 6.08669C7.3733 6.09002 7.4183 6.09502 7.4633 6.10002C7.5958 6.11502 7.74164 6.19585 7.7908 6.30752C8.03914 6.87085 8.2808 7.43835 8.51414 8.00752C8.5658 8.13419 8.53497 8.29669 8.43664 8.45502C8.36901 8.56209 8.29586 8.66556 8.21747 8.76502C8.1233 8.88585 7.9208 9.10752 7.9208 9.10752C7.9208 9.10752 7.8383 9.20585 7.86997 9.32835C7.88164 9.37502 7.91997 9.44252 7.95497 9.49919L8.00414 9.57835C8.21747 9.93419 8.50414 10.295 8.85414 10.635C8.95414 10.7317 9.05164 10.8309 9.15664 10.9234C9.54664 11.2675 9.9883 11.5484 10.465 11.7567L10.4691 11.7584C10.54 11.7892 10.5758 11.8059 10.6791 11.85C10.7308 11.8717 10.7841 11.8909 10.8383 11.905C10.8943 11.9193 10.9532 11.9166 11.0077 11.8973C11.0621 11.878 11.1096 11.843 11.1441 11.7967C11.7475 11.0659 11.8025 11.0184 11.8075 11.0184V11.02C11.8494 10.9809 11.8992 10.9513 11.9535 10.933C12.0078 10.9147 12.0655 10.9083 12.1225 10.9142C12.1725 10.9175 12.2233 10.9267 12.27 10.9475C12.7125 11.15 13.4366 11.4659 13.4366 11.4659L13.9216 11.6834C14.0033 11.7225 14.0775 11.815 14.08 11.9042C14.0833 11.96 14.0883 12.05 14.0691 12.215C14.0425 12.4309 13.9775 12.69 13.9125 12.8259C13.868 12.9186 13.8089 13.0035 13.7375 13.0775C13.6534 13.1658 13.5613 13.2462 13.4625 13.3175C13.4283 13.3432 13.3935 13.3682 13.3583 13.3925C13.2547 13.4583 13.1482 13.5195 13.0391 13.5759C12.8246 13.6898 12.5876 13.7552 12.345 13.7675C12.1908 13.7759 12.0366 13.7875 11.8816 13.7792C11.875 13.7792 11.4083 13.7067 11.4083 13.7067C10.2235 13.3951 9.1278 12.8112 8.2083 12.0017C8.01997 11.8359 7.8458 11.6575 7.66747 11.48C6.9258 10.7425 6.3658 9.94669 6.0258 9.19502C5.85178 8.82609 5.75778 8.42452 5.74997 8.01669C5.74654 7.51073 5.91193 7.01808 6.21997 6.61669C6.2808 6.53835 6.3383 6.45669 6.43747 6.36252C6.5433 6.26252 6.60997 6.20919 6.68247 6.17252C6.77887 6.12421 6.88402 6.09587 6.99164 6.08919L6.99247 6.09002Z" fill="#C0E0EF"/>
</g>
<defs>
<clipPath id="clip0_2564_6478">
<rect width="20" height="20" fill="white"/>
</clipPath>
</defs>
</svg>
